<?xml version="1.0" encoding="UTF-8"?>
<svg xmlns="http://www.w3.org/2000/svg" id="Layer_1" data-name="Layer 1" viewBox="0 0 1080 1080">
  <defs>
    <style>
      .cls-1 {
        stroke: #006;
        stroke-miterlimit: 10;
        stroke-width: 4.92px;
      }

      .cls-1, .cls-2 {
        fill: #006;
      }

      .cls-2 {
        font-family: Axiforma-Heavy, Axiforma;
        font-size: 101.15px;
        font-weight: 800;
      }
    </style>
  </defs>
  <g id="gradient">
    <path class="cls-1" d="m864,1065.42H82.02c-9.39,0-17-7.61-17-17V28.45c0-9.39,7.61-17,17-17h560.99c4.51,0,8.83,1.79,12.02,4.98l220.99,220.99c3.19,3.19,4.98,7.51,4.98,12.02v458.99c0,9.39-7.61,17-17,17s-17-7.61-17-17v-451.95l-211.03-211.03H99.02v985.98h764.98c9.39,0,17,7.61,17,17s-7.61,17-17,17Z"></path>
    <path class="cls-1" d="m864,266.44h-220.99c-9.39,0-17-7.61-17-17V28.45c0-9.39,7.61-17,17-17,4.51,0,8.83,1.79,12.02,4.98l220.99,220.99c6.64,6.64,6.64,17.4,0,24.04-3.19,3.19-7.51,4.98-12.02,4.98Zm-204-34h162.96l-162.96-162.96v162.96Z"></path>
    <path class="cls-1" d="m694.01,368.44h-322.99c-9.39,0-17-7.61-17-17s7.61-17,17-17h322.99c9.39,0,17,7.61,17,17s-7.61,17-17,17Z"></path>
    <path class="cls-1" d="m694.01,521.44h-322.99c-9.39,0-17-7.61-17-17s7.61-17,17-17h322.99c9.39,0,17,7.61,17,17s-7.61,17-17,17Z"></path>
    <path class="cls-1" d="m694.01,674.43h-322.99c-9.39,0-17-7.61-17-17s7.61-17,17-17h322.99c9.39,0,17,7.61,17,17s-7.61,17-17,17Z"></path>
    <path class="cls-1" d="m575.01,827.43h-204c-9.39,0-17-7.61-17-17s7.61-17,17-17h204c9.39,0,17,7.61,17,17s-7.61,17-17,17Z"></path>
    <path class="cls-1" d="m303.02,402.44h-68c-9.39,0-17-7.61-17-17v-68c0-9.39,7.61-17,17-17h68c9.39,0,17,7.61,17,17v68c0,9.39-7.61,17-17,17Zm-51-34h34v-34h-34v34Z"></path>
    <path class="cls-1" d="m303.02,555.43h-68c-9.39,0-17-7.61-17-17v-68c0-9.39,7.61-17,17-17h68c9.39,0,17,7.61,17,17v68c0,9.39-7.61,17-17,17Zm-51-34h34v-34h-34v34Z"></path>
    <path class="cls-1" d="m303.02,708.43h-68c-9.39,0-17-7.61-17-17v-68c0-9.39,7.61-17,17-17h68c9.39,0,17,7.61,17,17v68c0,9.39-7.61,17-17,17Zm-51-34h34v-34h-34v34Z"></path>
    <path class="cls-1" d="m303.02,861.43h-68c-9.39,0-17-7.61-17-17v-68c0-9.39,7.61-17,17-17h68c9.39,0,17,7.61,17,17v68c0,9.39-7.61,17-17,17Zm-51-34h34v-34h-34v34Z"></path>
    <path class="cls-1" d="m847,946.43c-4.51,0-8.83-1.79-12.02-4.98l-68-68c-6.52-6.75-6.34-17.51.42-24.04,6.59-6.36,17.03-6.36,23.62,0l55.98,55.98,106.98-106.98c6.75-6.52,17.51-6.34,24.04.42,6.36,6.59,6.36,17.03,0,23.62l-119,119c-3.19,3.19-7.51,4.98-12.02,4.98Z"></path>
    <path class="cls-1" d="m864,1065.42c-103.27,0-187-83.72-187-187s83.72-187,187-187,187,83.72,187,187c-.11,103.23-83.77,186.88-187,187Zm0-339.99c-84.5,0-153,68.5-153,153s68.5,153,153,153,153-68.5,153-153c-.09-84.46-68.54-152.9-153-153Z"></path>
  </g>
  <text class="cls-2" transform="translate(131.89 205.05)">
    <tspan x="0" y="0">FORM 16</tspan>
  </text>
</svg>
