<?xml version="1.0" encoding="UTF-8"?>
<svg xmlns="http://www.w3.org/2000/svg" id="Layer_1" data-name="Layer 1" viewBox="0 0 1080 1080">
  <defs>
    <style>
      .cls-1 {
        fill: #006;
      }
    </style>
  </defs>
  <g id="_32_Property_Paper" data-name="32 Property Paper">
    <g>
      <path class="cls-1" d="m909.49,210.98l-71.07-23.79v-23.8c0-29.12-23.68-52.8-52.79-52.8h-175.63l-166.28-55.73c-27.38-9.44-57.62,5.28-66.94,33.22l-7.5,22.51h-74.93c-29.12,0-52.8,23.68-52.8,52.8v327.96l-104.19,310.7c-9.42,27.61,5.47,57.67,33.23,66.93l70.96,23.79v23.82c0,29.12,23.68,52.8,52.8,52.8h175.44l166.5,55.91c27.71,9.19,57.64-5.84,66.85-33.43l7.49-22.48h75c29.1,0,52.79-23.68,52.79-52.8v-327.96l104.32-310.81c9.24-27.49-5.61-57.56-33.25-66.84h0Zm-510.83-115.62c5.18-15.53,21.99-24.07,37.66-18.69l101.16,33.91h-143.89l5.07-15.22Zm-220.77,751.74c-15.69-5.23-24.02-22.14-18.7-37.66l82.36-245.6v304.61l-63.66-21.35Zm503.38,137.47c-5.22,15.58-22.11,24.02-37.67,18.85l-101.39-34.04h144.11l-5.05,15.19Zm104.36-38.24h-491.29c-16.4,0-29.75-13.34-29.75-29.75V163.39c0-16.4,13.34-29.75,29.75-29.75h491.29c16.39,0,29.73,13.34,29.73,29.75v753.2c0,16.4-13.34,29.75-29.73,29.75Zm135.25-675.84l-82.46,245.7V211.49l63.75,21.34c15.43,5.16,23.92,22.1,18.72,37.66h0Z"></path>
      <path class="cls-1" d="m409.83,462.51c-6.36,0-11.53,5.16-11.53,11.53s5.16,11.53,11.53,11.53h246.11c6.36,0,11.53-5.16,11.53-11.53s-5.16-11.53-11.53-11.53h-20.98v-140.88h20.98c4.82,0,9.13-2.99,10.81-7.5,1.68-4.5.38-9.58-3.26-12.73l-122.97-106.55c-4.32-3.75-10.75-3.77-15.1-.02l-123.14,106.55c-3.63,3.15-4.94,8.24-3.26,12.74,1.68,4.52,5.99,7.5,10.81,7.5h20.98v140.88h-20.98,0Zm106.93,0v-58.94h32.27v58.94h-32.27Zm16.21-243.71l92.07,79.77c-19.62,0-195.51-.01-184.27,0l92.2-79.77Zm-79.1,102.83h158.03v140.88h-39.82v-70.47c0-6.36-5.16-11.53-11.53-11.53h-55.32c-6.36,0-11.53,5.16-11.53,11.53v70.47h-39.84v-140.88h0Z"></path>
      <path class="cls-1" d="m754.71,542.6h-429.45c-6.36,0-11.53,5.16-11.53,11.53s5.16,11.53,11.53,11.53h429.45c6.36,0,11.53-5.16,11.53-11.53s-5.16-11.53-11.53-11.53Z"></path>
      <path class="cls-1" d="m754.71,619.09h-429.45c-6.36,0-11.53,5.16-11.53,11.53s5.16,11.53,11.53,11.53h429.45c6.36,0,11.53-5.16,11.53-11.53s-5.16-11.53-11.53-11.53Z"></path>
      <path class="cls-1" d="m505.23,695.56h-179.96c-6.36,0-11.53,5.16-11.53,11.53s5.16,11.53,11.53,11.53h179.96c6.36,0,11.53-5.16,11.53-11.53s-5.16-11.53-11.53-11.53h0Z"></path>
      <path class="cls-1" d="m505.23,772.03h-179.96c-6.36,0-11.53,5.16-11.53,11.53s5.16,11.53,11.53,11.53h179.96c6.36,0,11.53-5.16,11.53-11.53,0-6.36-5.16-11.53-11.53-11.53h0Z"></path>
      <path class="cls-1" d="m505.23,848.52h-179.96c-6.36,0-11.53,5.16-11.53,11.53s5.16,11.53,11.53,11.53h179.96c6.36,0,11.53-5.16,11.53-11.53,0-6.36-5.16-11.53-11.53-11.53h0Z"></path>
      <path class="cls-1" d="m700.06,706.17c.03-.42.47-1.13.96-1.65,4.79,2.28,10.66,1.07,14.06-3.26,3.95-5,3.08-12.25-1.92-16.18-14.91-11.77-36.85,3.07-36.13,21.9.51,13.99,10.82,24.7,15.34,30.09,24.59,29.44,8.85,45.47.27,42.78-3.72-1.25-6.9-5.87-10.58-11.2-4.23-6.15-9.04-13.13-16.78-17.74-25.32-15.09-56.52,7.95-49.58,36.61,5.87,24.18,31.76,29.32,41.74,42.49,11.64,15.36-2.64,35.3-18.1,33.07-13.79-1.77-26.12-18.87-33.82-46.89-1.7-6.14-8.01-9.7-14.17-8.07-6.14,1.7-9.76,8.03-8.07,14.17,35.38,128.77,156.66,32.25,71.52-23.91-8.13-5.36-15.17-9.98-16.7-16.27-1.47-6.14,2.69-9.77,3.99-10.73,15.77-11.78,20.94,22.9,43.24,30.33,29.5,9.92,66.13-29.8,24.75-79.4-9.89-11.77-9.95-13.93-10.03-16.14h0Z"></path>
    </g>
  </g>
</svg>
