<?xml version="1.0" encoding="UTF-8"?>
<svg xmlns="http://www.w3.org/2000/svg" id="Layer_1" data-name="Layer 1" viewBox="0 0 1080 1080">
  <defs>
    <style>
      .cls-1 {
        fill: #006;
      }
    </style>
  </defs>
  <g>
    <path class="cls-1" d="m981.67,10H345.67c-48.76.06-88.27,39.57-88.33,88.33v406.33h35.33V98.33c0-29.27,23.73-53,53-53h441.67v88.33c.06,48.76,39.57,88.27,88.33,88.33h88.33v689c0,29.27-23.73,53-53,53h-265v35.33h335.67c48.76-.06,88.27-39.57,88.33-88.33V98.33c-.06-48.76-39.57-88.27-88.33-88.33Zm-106,176.67c-29.27,0-53-23.73-53-53v-63.35l116.35,116.35h-63.35Zm159,724.33c0,29.27-23.73,53-53,53h-.46c11.69-15.2,18.05-33.82,18.12-53V204.33c0-.39-.2-.72-.23-1.11-.09-1.54-.39-3.08-.9-4.54-.2-.57-.34-1.11-.59-1.66-.85-1.92-2.04-3.67-3.53-5.18l-146.44-146.51h134.02c29.27,0,53,23.73,53,53v812.67Z"></path>
    <path class="cls-1" d="m345.67,469.33v35.33h371v53h-176.67v35.33h176.67v53h-70.67v35.33h70.67v53h-70.67v35.33h70.67v53h-106v35.33h300.33v-35.33h-159v-53h159v-35.33h-159v-53h159v-35.33h-159v-53h159v-35.33h-159v-53h159v-35.33h-159v-53h159v-35.33H345.67v35.33h371v53h-371Z"></path>
    <path class="cls-1" d="m610.67,893.33h300.33v35.33h-300.33v-35.33Z"></path>
    <path class="cls-1" d="m540,133.67h212v35.33h-212v-35.33Z"></path>
    <path class="cls-1" d="m540,204.33h106v35.33h-106v-35.33Z"></path>
    <path class="cls-1" d="m681.33,204.33h70.67v35.33h-70.67v-35.33Z"></path>
    <path class="cls-1" d="m540,275h212v35.33h-212v-35.33Z"></path>
    <path class="cls-1" d="m593,964h-17.67v-212h17.67c9.76,0,17.67-7.91,17.67-17.67v-88.33c0-7.71-5-14.54-12.37-16.86l-282.67-88.33c-3.44-1.09-7.15-1.09-10.59,0L22.37,629.14c-7.37,2.32-12.37,9.14-12.37,16.86v88.33c0,9.76,7.91,17.67,17.67,17.67h17.67v212h-17.67c-9.76,0-17.67,7.91-17.67,17.67v70.67c0,9.76,7.91,17.67,17.67,17.67h565.33c9.76,0,17.67-7.91,17.67-17.67v-70.67c0-9.76-7.91-17.67-17.67-17.67Zm-53,0h-35.33v-212h35.33v212Zm-106,0v-212h35.33v212h-35.33Zm-141.33,0v-212h35.33v212h-35.33Zm-141.33,0v-212h35.33v212h-35.33Zm70.67-212h35.33v212h-35.33v-212Zm141.33,0h35.33v212h-35.33v-212Zm-318-93.02l265-82.8,265,82.8v57.68H45.33v-57.68Zm35.33,93.02h35.33v212h-35.33v-212Zm494.67,282.67H45.33v-35.33h530v35.33Z"></path>
    <path class="cls-1" d="m345.67,646c0,19.51-15.82,35.33-35.33,35.33s-35.33-15.82-35.33-35.33,15.82-35.33,35.33-35.33,35.33,15.82,35.33,35.33Z"></path>
  </g>
  <path class="cls-1" d="m483.63,161.39c7.5,0,13.58-6.08,13.58-13.58s-6.08-13.58-13.58-13.58h-117.72c-7.5,0-13.58,6.08-13.58,13.58s6.08,13.58,13.58,13.58h40.75c14.31,0,26.3,9.6,30.21,22.64h-70.96c-7.5,0-13.58,6.08-13.58,13.58s6.08,13.58,13.58,13.58h66.68c-5.74,8.19-15.21,13.58-25.93,13.58h-40.75c-5.96,0-11.23,3.9-12.98,9.58-1.76,5.69.4,11.87,5.32,15.23l99.61,67.91c2.35,1.6,5,2.35,7.64,2.35,4.35,0,8.62-2.06,11.25-5.92,4.2-6.21,2.63-14.67-3.57-18.89l-63.35-43.19c24.72-1.3,45.2-18.06,52.57-40.66h21.23c7.5,0,13.58-6.08,13.58-13.58s-6.08-13.58-13.58-13.58h-19.03c-1.29-8.22-4.16-15.9-8.49-22.64h27.53Zm0,0"></path>
</svg>
