<?xml version="1.0" encoding="UTF-8"?>
<svg xmlns="http://www.w3.org/2000/svg" id="Layer_1" data-name="Layer 1" viewBox="0 0 1080 1080">
  <defs>
    <style>
      .cls-1 {
        fill: #006;
      }
    </style>
  </defs>
  <path class="cls-1" d="m959.53,888.04h-1.61v-20.79c0-17.47-14.21-31.68-31.69-31.68h-37.74v-28.67c0-13.62-10.71-24.75-24.14-25.5v-269.46c13.43-.75,24.14-11.89,24.14-25.5v-28.67h36.62c13.95,0,25.3-11.35,25.3-25.3v-27.02h19.25c11.32,0,20.54-9.21,20.54-20.54v-23.35c0-7.55-4.12-14.47-10.77-18.07l-303.16-163.94c-6.44-3.49-14.47-1.09-17.94,5.35-3.48,6.43-1.08,14.47,5.35,17.94l300.05,162.26v13.87H116.27v-13.76l430.23-225.74,62.61,33.86c6.44,3.48,14.47,1.08,17.94-5.35,3.48-6.43,1.08-14.47-5.35-17.94l-62.62-33.86c-7.73-4.18-17-4.24-24.79-.16L100.8,343.43c-6.79,3.56-11,10.53-11,18.19v23.29c0,11.32,9.21,20.54,20.54,20.54h19.25v27.02c0,13.95,11.35,25.3,25.3,25.3h36.62v28.67c0,13.62,10.71,24.75,24.14,25.5v175.42c0,7.31,5.93,13.24,13.24,13.24s13.24-5.93,13.24-13.24v-175.35h42.37v269.32h-42.36v-31.75c0-7.31-5.93-13.24-13.24-13.24s-13.24,5.93-13.24,13.24v31.82c-13.43.75-24.14,11.89-24.14,25.5v28.67h-37.74c-17.47,0-31.69,14.21-31.69,31.68v20.79h-1.61c-17.47,0-31.69,14.21-31.69,31.69v27.69c0,10.79,8.78,19.58,19.58,19.58h863.29c10.79,0,19.58-8.78,19.58-19.58v-27.69c0-17.47-14.21-31.69-31.69-31.69ZM156.06,431.29v-25.84h767.88v25.84H156.06Zm705.96,376.52v27.76h-90.64v-27.76h90.64Zm-66.5-26.48v-269.32h42.37v269.32h-42.37Zm-24.14-295.8v-27.76h90.64v27.76h-90.64Zm-91.48,295.87v-269.46c13.43-.75,24.14-11.89,24.14-25.5v-28.67h40.87v28.67c0,13.62,10.71,24.75,24.14,25.5v269.46c-13.43.75-24.14,11.89-24.14,25.5v28.67h-40.87v-28.67c0-13.62-10.71-24.75-24.14-25.5Zm-2.34,26.41v27.76h-90.64v-27.76h90.64Zm-66.5-26.48v-269.32h42.37v269.32h-42.37Zm-24.14-295.8v-27.76h90.64v27.76h-90.64Zm-91.48,295.87v-269.46c13.43-.75,24.14-11.89,24.14-25.5v-28.67h40.87v28.67c0,13.62,10.71,24.75,24.14,25.5v269.46c-13.43.75-24.14,11.89-24.14,25.5v28.67h-40.87v-28.67c0-13.62-10.71-24.75-24.14-25.5Zm-13.24,26.41h10.9v27.76h-90.64v-27.76h79.74Zm-55.6-26.48v-269.32h42.37v269.32h-42.37Zm-24.14-295.8v-27.76h90.64v27.76h-90.64Zm-91.48,295.87v-269.46c13.43-.75,24.14-11.89,24.14-25.5v-28.67h40.87v28.67c0,13.62,10.71,24.75,24.14,25.5v269.46c-13.43.75-24.14,11.89-24.14,25.5v28.67h-40.87v-28.67c0-13.62-10.71-24.75-24.14-25.5Zm-92.98-295.87v-27.76h90.64v27.76h-90.64Zm0,322.28h90.64v27.76h-90.64v-27.76Zm-69.43,59.45c0-2.87,2.34-5.21,5.21-5.21h772.49c2.87,0,5.21,2.34,5.21,5.21v20.79H148.55v-20.79Zm816.19,73.27H115.26v-20.79c0-2.87,2.34-5.21,5.21-5.21h839.07c2.87,0,5.21,2.34,5.21,5.21v20.79Z"></path>
</svg>
