<?xml version="1.0" encoding="UTF-8"?>
<svg xmlns="http://www.w3.org/2000/svg" id="Layer_1" data-name="Layer 1" viewBox="0 0 1080 1080">
  <defs>
    <style>
      .cls-1 {
        fill: none;
        stroke: #006;
        stroke-linecap: round;
        stroke-linejoin: round;
        stroke-width: 36.18px;
      }
    </style>
  </defs>
  <g id="g547">
    <g id="g553">
      <path id="path555" class="cls-1" d="m825.44,875.95l-768.36-.15c-18.47,0-33.59-15.12-33.58-33.6l.12-604.61c0-18.47,15.12-33.59,33.6-33.58h21m167.95.04l776.76.16c18.48,0,33.59,15.12,33.58,33.6l-.12,604.61c0,18.47-15.12,33.59-33.6,33.58h-29.39"></path>
    </g>
    <g id="g557">
      <path id="path559" class="cls-1" d="m26.04,304.77l1028.01.21"></path>
    </g>
    <g id="g561">
      <path id="path563" class="cls-1" d="m218.91,622.74c-65.52,28.16-111.41,93.26-111.43,169.09l368.02.07c.02-75.89-45.92-141.05-111.5-169.2"></path>
    </g>
    <g id="g565">
      <path id="path567" class="cls-1" d="m291.58,388.8h0c57.83.01,105.14,47.34,105.13,105.17v52.57c-.02,57.83-47.35,105.14-105.18,105.13-57.83-.01-105.14-47.34-105.13-105.17v-52.57c.02-57.83,47.35-105.14,105.18-105.13Z"></path>
    </g>
    <g id="g569">
      <path id="path571" class="cls-1" d="m187.27,494.47c39.95,24.6,99.59-1.23,130.27-23.22,21.04,24.89,55.45,32.27,78.78,22.87"></path>
    </g>
    <path id="path573" class="cls-1" d="m594.59,472.83l377.88.08.02-83.97-377.88-.08-.02,83.97Z"></path>
    <g id="g575">
      <path id="path577" class="cls-1" d="m594.58,556.81l377.88.08"></path>
    </g>
    <g id="g579">
      <path id="path581" class="cls-1" d="m594.53,791.93l125.96.03"></path>
    </g>
    <path id="path583" class="cls-1" d="m804.47,791.97l167.95.03.03-151.14-167.95-.03-.03,151.14Z"></path>
    <g id="g585">
      <path id="path587" class="cls-1" d="m594.56,640.79l125.96.03"></path>
    </g>
    <g id="g589">
      <path id="path591" class="cls-1" d="m162.18,204.03h.01"></path>
    </g>
    <g id="g593">
      <path id="path595" class="cls-1" d="m909.41,875.97h.01"></path>
    </g>
  </g>
</svg>
