<?xml version="1.0" encoding="UTF-8"?>
<svg xmlns="http://www.w3.org/2000/svg" id="Layer_1" data-name="Layer 1" viewBox="0 0 1080 1080">
  <defs>
    <style>
      .cls-1 {
        fill: none;
        stroke: #006;
        stroke-linecap: round;
        stroke-linejoin: round;
        stroke-width: 33.14px;
      }
    </style>
  </defs>
  <g id="g547">
    <g id="g553">
      <path id="path555" class="cls-1" d="m801.43,847.7l-703.73-.14c-16.92,0-30.76-13.85-30.76-30.77l.11-553.76c0-16.92,13.85-30.76,30.77-30.76h19.23m153.82.03l711.43.14c16.92,0,30.76,13.85,30.76,30.77l-.11,553.76c0,16.92-13.85,30.76-30.77,30.76h-26.92"></path>
    </g>
    <g id="g557">
      <path id="path559" class="cls-1" d="m69.27,324.56l941.54.19"></path>
    </g>
    <g id="g561">
      <path id="path563" class="cls-1" d="m245.92,615.78c-60.01,25.79-102.04,85.42-102.05,154.87l337.07.07c.01-69.51-42.06-129.19-102.13-154.97"></path>
    </g>
    <g id="g565">
      <path id="path567" class="cls-1" d="m312.47,401.52h0c52.97.01,96.3,43.35,96.28,96.32v48.15c-.02,52.97-43.36,96.3-96.33,96.29-52.97-.01-96.3-43.36-96.28-96.33v-48.15c.02-52.97,43.36-96.3,96.33-96.28Z"></path>
    </g>
    <g id="g569">
      <path id="path571" class="cls-1" d="m216.94,498.3c36.59,22.53,91.21-1.13,119.32-21.26,19.27,22.8,50.79,29.56,72.15,20.95"></path>
    </g>
    <path id="path573" class="cls-1" d="m590,478.48l346.1.07.02-76.91-346.1-.07-.02,76.91Z"></path>
    <g id="g575">
      <path id="path577" class="cls-1" d="m589.99,555.4l346.1.07"></path>
    </g>
    <g id="g579">
      <path id="path581" class="cls-1" d="m589.94,770.74l115.37.02"></path>
    </g>
    <path id="path583" class="cls-1" d="m782.22,770.78l153.82.03.03-138.43-153.82-.03-.03,138.43Z"></path>
    <g id="g585">
      <path id="path587" class="cls-1" d="m589.97,632.31l115.37.02"></path>
    </g>
    <g id="g589">
      <path id="path591" class="cls-1" d="m193.96,232.29h.01"></path>
    </g>
    <g id="g593">
      <path id="path595" class="cls-1" d="m878.34,847.71h.01"></path>
    </g>
  </g>
</svg>
