<?xml version="1.0" encoding="UTF-8"?>
<svg xmlns="http://www.w3.org/2000/svg" id="Layer_1" data-name="Layer 1" viewBox="0 0 1080 1080">
  <defs>
    <style>
      .cls-1 {
        fill: #006;
      }

      .cls-2 {
        fill: none;
        stroke: #006;
        stroke-linecap: round;
        stroke-linejoin: round;
        stroke-width: 35.39px;
      }
    </style>
  </defs>
  <path class="cls-1" d="m864.86,676.73c6.94,0,12.58-5.64,12.58-12.58s-5.64-12.58-12.58-12.58h-109.02c-6.94,0-12.58,5.64-12.58,12.58s5.64,12.58,12.58,12.58h37.74c13.25,0,24.35,8.89,27.98,20.96h-65.71c-6.94,0-12.58,5.64-12.58,12.58s5.64,12.58,12.58,12.58h61.75c-5.32,7.58-14.09,12.58-24.02,12.58h-37.74c-5.52,0-10.4,3.61-12.02,8.87-1.63,5.27.37,10.99,4.93,14.11l92.25,62.89c2.18,1.48,4.63,2.18,7.08,2.18,4.03,0,7.98-1.91,10.42-5.49,3.89-5.75,2.43-13.58-3.31-17.49l-58.67-40c22.89-1.21,41.86-16.72,48.69-37.65h19.66c6.94,0,12.58-5.64,12.58-12.58s-5.64-12.58-12.58-12.58h-17.63c-1.19-7.61-3.86-14.72-7.86-20.96h25.49Zm0,0"></path>
  <path id="path1711" class="cls-2" d="m554.7,209.02H198.08"></path>
  <path id="path1715" class="cls-2" d="m554.7,306.51H198.08"></path>
  <path id="path1719" class="cls-2" d="m376.39,404.01h-178.31"></path>
  <path id="path1739" class="cls-2" d="m652.53,73.89c4.85,2.21,9.33,5.24,13.18,9.08l142.69,142.69c3.84,3.84,6.87,8.33,9.08,13.18h-129.12c-19.79,0-35.83-16.04-35.83-35.83V73.89Z"></path>
  <path id="path1747" class="cls-2" d="m821.58,494.5v-237.03c0-11.93-4.74-23.37-13.18-31.81l-142.69-142.69c-8.44-8.44-19.88-13.18-31.81-13.18H137.38c-24.84,0-44.98,20.14-44.98,44.98v850.44c0,24.84,20.14,44.98,44.98,44.98h680.52l.65-66.7"></path>
  <circle class="cls-2" cx="817.9" cy="722.5" r="169.71"></circle>
</svg>
