<?xml version="1.0" encoding="UTF-8"?>
<svg xmlns="http://www.w3.org/2000/svg" id="Layer_1" data-name="Layer 1" viewBox="0 0 1080 1080">
  <defs>
    <style>
      .cls-1 {
        fill: #006;
      }
    </style>
  </defs>
  <path class="cls-1" d="m121.39,813.16v10.12c0,39.11,31.7,70.81,70.81,70.81h263.02c39.11,0,70.81-31.7,70.81-70.81v-10.12c1.67-71.81-45.42-135.66-114.51-155.28,54.07-48.5,58.59-131.64,10.09-185.71-48.5-54.07-131.64-58.59-185.71-10.09-54.07,48.5-58.59,131.64-10.09,185.71,3.18,3.54,6.55,6.91,10.09,10.09-69.1,19.62-116.19,83.47-114.51,155.28Zm202.32-343.95c50.28,0,91.05,40.76,91.05,91.05s-40.76,91.05-91.05,91.05-91.05-40.76-91.05-91.05,40.76-91.05,91.05-91.05Zm-40.46,222.55h80.93c65.57-1.47,119.92,50.5,121.39,116.07.04,1.77.04,3.55,0,5.32v10.12c0,16.76-13.59,30.35-30.35,30.35H192.21c-16.76,0-30.35-13.59-30.35-30.35v-10.12c-1.47-65.57,50.5-119.92,116.07-121.39,1.77-.04,3.55-.04,5.32,0Z"></path>
  <path class="cls-1" d="m950.92,671.53c-11.17,0-20.23,9.06-20.23,20.23v252.9c0,16.76-13.59,30.35-30.35,30.35H70.81c-16.76,0-30.35-13.59-30.35-30.35V357.93c0-16.76,13.59-30.35,30.35-30.35h445.11c11.17,0,20.23-9.06,20.23-20.23s-9.06-20.23-20.23-20.23H70.81C31.7,287.12,0,318.82,0,357.93v586.74C0,983.78,31.7,1015.48,70.81,1015.48h829.52c39.11,0,70.81-31.7,70.81-70.81v-252.9c0-11.17-9.06-20.23-20.23-20.23Z"></path>
  <path class="cls-1" d="m933.21,293.09l-127.26,127.26-80.12-80.12c-7.91-7.91-20.72-7.91-28.63,0-7.91,7.91-7.91,20.72,0,28.63l94.38,94.38c3.8,3.82,8.97,5.97,14.36,5.97,5.36-.02,10.49-2.17,14.26-5.97l141.63-141.63c7.49-8.29,6.84-21.09-1.46-28.58-7.72-6.97-19.47-6.95-27.17.05h0Z"></path>
  <path class="cls-1" d="m1075.14,180.6c-1.03-9.64-8.75-17.19-18.41-18.01-38.59-4.99-76.27-15.48-111.88-31.16-36.79-15.32-71.06-36.09-101.67-61.61-7.73-7.07-19.58-7.07-27.31,0-30.6,25.53-64.87,46.3-101.67,61.61-35.43,15.61-72.9,26.1-111.28,31.16-9.7.77-17.47,8.33-18.51,18.01-.91,8.6-21.14,210.62,28.83,310.36,59.79,119.17,202.32,186.04,208.29,188.87,5.39,2.49,11.6,2.49,17,0,5.97-2.83,148.5-69.7,208.29-188.87,49.47-99.75,29.24-301.76,28.33-310.36Zm-65.05,292.26c-45.42,90.74-150.22,150.12-180.57,166.01-30.35-15.88-135.15-75.26-180.57-166.01-37.23-74.45-29.74-223.47-26.1-272.23,36.87-6.42,72.86-17.15,107.23-31.97,35.43-14.98,68.84-34.36,99.44-57.66,30.6,23.31,64.01,42.68,99.44,57.66,34.37,14.81,70.36,25.54,107.23,31.97,3.74,48.76,11.23,197.77-26.1,272.23h0Z"></path>
  <path class="cls-1" d="m627.2,894.09h202.32c11.17,0,20.23-9.06,20.23-20.23s-9.06-20.23-20.23-20.23h-202.32c-11.17,0-20.23,9.06-20.23,20.23s9.06,20.23,20.23,20.23Z"></path>
  <path class="cls-1" d="m627.2,772.69h121.39c11.17,0,20.23-9.06,20.23-20.23s-9.06-20.23-20.23-20.23h-121.39c-11.17,0-20.23,9.06-20.23,20.23s9.06,20.23,20.23,20.23Z"></path>
</svg>
