<?xml version="1.0" encoding="UTF-8"?>
<svg xmlns="http://www.w3.org/2000/svg" id="Layer_1" data-name="Layer 1" viewBox="0 0 1080 1080">
  <defs>
    <style>
      .cls-1 {
        fill: #006;
      }
    </style>
  </defs>
  <path class="cls-1" d="m641.7,539.97c0-27.17-10.58-52.71-29.79-71.92-39.66-39.66-104.18-39.66-143.84,0-39.66,39.66-39.66,104.18,0,143.84,19.82,19.83,45.87,29.74,71.92,29.74s52.1-9.91,71.92-29.74c19.21-19.21,29.79-44.75,29.79-71.92Zm-154.76,53.04c-14.17-14.17-21.97-33-21.97-53.04s7.81-38.87,21.97-53.04c14.63-14.63,33.83-21.94,53.04-21.94s38.43,7.32,53.04,21.94,21.97,33.01,21.97,53.04-7.8,38.88-21.97,53.04c-29.25,29.26-76.84,29.26-106.09,0Z"></path>
  <path class="cls-1" d="m985.92,237.71c-11.69-26.98-32.99-56.69-59.97-83.66s-56.69-48.27-83.66-59.96c-30.3-13.14-54.83-12.81-69.28.81-.2.17-.4.34-.58.52-.06.06-.14.12-.2.18-.09.1-.17.2-.26.29-.09.1-.19.19-.28.3l-1.65,1.86c-.11.13-.24.25-.35.39l-82.75,93.39c-4.89,5.51-4.38,13.95,1.14,18.84,2.54,2.25,5.7,3.36,8.84,3.36,3.69,0,7.36-1.52,10-4.49l56.83-64.13c1.48,5.91,3.59,12.14,6.32,18.64.02.06.03.11.06.17.03.09.08.17.11.26.17.4.32.79.49,1.2.49,1.13,1.02,2.27,1.54,3.41.07.14.13.28.19.42.72,1.56,1.47,3.12,2.25,4.69.1.19.19.38.28.56.75,1.5,1.54,3.02,2.34,4.53.15.27.28.54.42.81.76,1.42,1.56,2.85,2.37,4.27.21.37.4.73.62,1.1.76,1.32,1.54,2.64,2.34,3.97.28.47.56.95.85,1.43.74,1.21,1.5,2.42,2.27,3.63.38.6.75,1.2,1.13,1.79.71,1.09,1.44,2.19,2.17,3.28.47.72.94,1.43,1.42,2.14.67.99,1.36,1.97,2.05,2.95.58.82,1.14,1.64,1.72,2.46.63.89,1.29,1.78,1.95,2.67.66.91,1.31,1.81,1.99,2.72.62.82,1.25,1.64,1.88,2.45.74.97,1.47,1.95,2.23,2.91.61.78,1.24,1.56,1.86,2.33.8,1.01,1.58,2.01,2.41,3.01.64.78,1.3,1.56,1.95,2.34.82.99,1.63,1.97,2.47,2.96.73.85,1.49,1.71,2.23,2.56.78.9,1.55,1.79,2.34,2.69.92,1.04,1.87,2.07,2.82,3.11.63.7,1.26,1.4,1.9,2.1,1.39,1.51,2.81,3,4.24,4.5.22.22.42.45.63.67,1.67,1.74,3.36,3.46,5.07,5.17,1.71,1.72,3.43,3.4,5.16,5.07.27.26.54.51.81.76,1.45,1.38,2.9,2.76,4.36,4.11.72.66,1.43,1.3,2.15,1.95,1.02.93,2.04,1.87,3.07,2.78.9.8,1.81,1.58,2.72,2.37.84.74,1.68,1.48,2.53,2.2.98.83,1.96,1.63,2.93,2.45.79.66,1.58,1.33,2.37,1.97.98.8,1.96,1.57,2.94,2.36.8.64,1.6,1.29,2.4,1.92.95.74,1.89,1.45,2.84,2.18.84.65,1.69,1.3,2.53,1.93.88.66,1.77,1.29,2.64,1.94.92.67,1.84,1.35,2.76,2.01.79.56,1.57,1.1,2.36,1.65,1.02.72,2.04,1.43,3.06,2.13.67.46,1.35.9,2.03,1.35,1.13.76,2.27,1.52,3.4,2.25.56.36,1.11.7,1.67,1.06,1.25.79,2.5,1.58,3.75,2.34.44.27.88.53,1.33.79,1.36.82,2.72,1.63,4.08,2.41.33.19.66.37.99.56,1.47.83,2.93,1.65,4.39,2.43.22.12.45.24.68.35,1.55.83,3.1,1.63,4.64,2.41.15.08.31.15.45.22,1.61.81,3.21,1.57,4.81,2.31.1.05.21.1.31.15,1.17.54,2.34,1.08,3.49,1.58.42.18.83.33,1.25.51.07.03.14.06.21.09.04.02.09.03.13.05,6.51,2.74,12.74,4.85,18.66,6.34l-240.1,212.76c-.36-.62-.73-1.24-1.13-1.84-4.3-6.65-5.6-14.84-3.56-22.49,7.19-27.08-7.1-55.12-33.23-65.22-7.38-2.86-13.26-8.73-16.11-16.11-10.1-26.14-38.14-40.41-65.23-33.23-7.65,2.04-15.85.73-22.49-3.56-.58-.38-1.18-.74-1.77-1.08l114.55-129.27c4.89-5.52,4.38-13.95-1.13-18.84-5.53-4.89-13.96-4.38-18.84,1.14l-123.41,139.27c-15.7.24-31.1,7.22-41.69,20.24-4.99,6.14-12.39,9.91-20.29,10.34-27.99,1.53-50.24,23.78-51.76,51.76-.43,7.9-4.2,15.3-10.34,20.29-13.02,10.59-20,25.99-20.24,41.69l-281.6,249.54c-.2.18-.4.36-.58.56-14.35,14.34-14.88,39.23-1.52,70.06,11.7,26.98,32.99,56.69,59.97,83.66s56.69,48.27,83.66,59.96c14.85,6.44,28.32,9.66,39.9,9.66,12.46,0,22.73-3.73,30.17-11.16.19-.19.38-.38.55-.58l49.69-56.07c4.89-5.52,4.38-13.96-1.13-18.84-5.53-4.89-13.96-4.38-18.84,1.13l-49.35,55.69c-10.5,9.67-58.9-1.8-115.76-58.66-52.9-52.9-69.96-103.61-58.67-115.75l271.23-240.35c.35.59.71,1.19,1.08,1.77,4.3,6.65,5.6,14.85,3.57,22.49-7.19,27.09,7.09,55.13,33.23,65.23,7.38,2.85,13.25,8.72,16.11,16.11,10.1,26.14,38.14,40.43,65.22,33.23,7.65-2.03,15.85-.73,22.5,3.57.61.39,1.24.74,1.86,1.11l-149.83,169.09c-4.89,5.52-4.39,13.95,1.13,18.84,2.54,2.25,5.7,3.36,8.85,3.36,3.68,0,7.35-1.52,10-4.5l137.85-155.56,28.22,91.62c2,6.51,7.4,11.44,14.07,12.86,1.29.27,2.6.4,3.89.4,5.37,0,10.57-2.31,14.18-6.45l35.77-41.04,48.12,14.41c6.66,1.99,13.84.16,18.74-4.78,4.89-4.94,6.67-12.13,4.62-18.77l-30.84-100.1,100.1,30.84c1.83.56,3.7.83,5.55.83,4.88,0,9.65-1.9,13.23-5.46,4.94-4.9,6.76-12.08,4.77-18.74l-14.4-48.12,41.05-35.76c5.14-4.48,7.45-11.41,6.04-18.08-1.42-6.67-6.35-12.06-12.86-14.07l-91.62-28.22,258.11-228.73c.11-.1.21-.2.31-.31.09-.08.19-.16.27-.24.06-.06.12-.13.18-.2.18-.19.36-.39.53-.58,13.62-14.46,13.94-38.98.81-69.28Zm-431.9,437.57c-.1-.01-.21-.02-.31-.03-4.16-.49-8.26-1.91-11.99-4.32-8.94-5.78-19.32-8.77-29.8-8.77-4.7,0-9.43.6-14.04,1.83-13.9,3.69-28.29-3.64-33.48-17.06-5.55-14.38-17-25.82-31.38-31.38-13.41-5.18-20.74-19.57-17.05-33.47,3.96-14.91,1.42-30.89-6.94-43.84-2.4-3.7-3.81-7.78-4.31-11.9l-.04-.4c-.98-9.19,2.61-18.61,10.23-24.81,11.97-9.73,19.31-24.15,20.15-39.55.79-14.35,12.21-25.77,26.57-26.56,15.4-.84,29.81-8.19,39.54-20.15,6.22-7.65,15.67-11.23,24.88-10.23l.33.04c4.12.5,8.19,1.91,11.89,4.3,12.95,8.38,28.93,10.9,43.84,6.94,13.9-3.69,28.29,3.64,33.47,17.06,5.56,14.38,17,25.82,31.38,31.38,13.42,5.19,20.75,19.57,17.06,33.48-3.96,14.9-1.43,30.88,6.94,43.84,2.41,3.73,3.83,7.83,4.32,11.99.01.1.02.21.03.31.97,9.19-2.61,18.6-10.23,24.79-3.35,2.73-6.33,5.83-8.91,9.22-.3.35-.59.73-.85,1.13-6.14,8.46-9.8,18.6-10.38,29.21-.3,5.49-2.16,10.55-5.15,14.76-.26.31-.51.64-.74.98-1.44,1.84-3.1,3.5-4.95,4.94-.33.23-.65.47-.95.73-4.21,2.99-9.27,4.86-14.76,5.16-10.5.58-20.53,4.18-28.94,10.2-.42.28-.83.58-1.22.91-3.45,2.62-6.61,5.64-9.38,9.05-6.2,7.62-15.61,11.21-24.8,10.23Zm32.61,120.61l-28.83-93.6.15-.16c11.59-.21,23.02-4.08,32.45-11.35l22.87,74.54-26.64,30.56Zm88.19-28.22l-36.24-10.84-25.75-83.95c2.25-.72,4.58-1.19,6.98-1.31,8.45-.47,16.36-2.83,23.36-6.65l31.65,102.76Zm-9.88-124.52c3.82-6.99,6.19-14.9,6.65-23.35.13-2.45.63-4.84,1.37-7.14l83.89,25.89,10.85,36.26-102.76-31.66Zm130.98-56.53l-30.56,26.63-74.45-22.98c7.22-9.42,11.06-20.8,11.26-32.35l.15-.13,93.6,28.83Zm60.7-349.33c-.12-.1-.23-.21-.34-.32-.82-.77-1.63-1.55-2.44-2.34-1.42-1.38-2.85-2.75-4.28-4.19-1.33-1.33-2.64-2.67-3.94-4.02-.58-.6-1.15-1.2-1.73-1.81-.6-.63-1.2-1.27-1.79-1.9-14.86-15.86-27.65-32.68-37.1-48.7,15.17,5.33,36.71,18.26,59.72,41.28,23.02,23.02,35.94,44.54,41.27,59.72-16.24-9.58-33.31-22.59-49.37-37.72Zm109.01,51.49l-.71.63c-4.5,3.66-14.9,3.93-29.4-.67-.32-28.08-24.66-65.03-51.94-92.32-27.3-27.3-64.3-51.65-92.38-51.93-4.39-13.62-4.68-24.56-.56-29.46l.58-.66c2.29-2.19,6.12-3.27,11.08-3.27,7.65,0,17.95,2.54,29.35,7.49,23.97,10.39,50.75,29.7,75.41,54.35,57.05,57.05,68.4,105.57,58.56,115.85Z"></path>
</svg>
