<?xml version="1.0" encoding="UTF-8"?>
<svg xmlns="http://www.w3.org/2000/svg" id="Layer_1" data-name="Layer 1" viewBox="0 0 1080 1080">
  <defs>
    <style>
      .cls-1 {
        fill: #006;
      }

      .cls-2 {
        fill: none;
        stroke: #006;
        stroke-linecap: round;
        stroke-linejoin: round;
        stroke-width: 35.93px;
      }
    </style>
  </defs>
  <g>
    <path class="cls-2" d="m444.76,148.69v108.51c1.2.21,38.03,0,38.03,0"></path>
    <line class="cls-2" x1="386.6" y1="148.69" x2="386.6" y2="257.29"></line>
    <g>
      <path class="cls-2" d="m318.69,173.67c0,13.8-11.19,24.99-24.99,24.99-6.84,0-31.55.11-31.55.11v-50.09h31.55c13.8,0,24.99,11.19,24.99,24.99Z"></path>
      <path class="cls-2" d="m328.45,227.93c0,16.14-13.09,29.23-29.23,29.23-8.01,0-37.06.13-37.06.13v-58.59h37.06c16.14,0,29.23,13.09,29.23,29.23Z"></path>
    </g>
    <path class="cls-2" d="m540.95,148.69v108.51c1.2.21,38.03,0,38.03,0"></path>
    <path class="cls-2" d="m792.65,150.9l-137.9,119.43c-3.08,2.66-1.19,7.72,2.88,7.72h45.63c3.25,0,5.38,3.4,3.95,6.32l-42.44,86.8c-4.2,8.6,6.41,16.77,13.65,10.5l137.9-119.43c3.08-2.66,1.19-7.72-2.88-7.72h-45.63c-3.25,0-5.38-3.4-3.95-6.32l42.44-86.8c4.2-8.6-6.41-16.77-13.65-10.5Z"></path>
    <path class="cls-2" d="m168,916.74V47.99c0-12.09,12.46-20.15,23.49-15.2l62.71,28.08c4.32,1.95,9.28,1.95,13.63,0l79.36-35.56c4.34-1.93,9.31-1.93,13.63,0l79.36,35.56c4.34,1.95,9.31,1.95,13.65,0l79.36-35.56c4.34-1.93,9.28-1.93,13.63,0l79.36,35.56c4.34,1.95,9.31,1.95,13.65,0l79.36-35.56c4.32-1.93,9.28-1.93,13.63,0l79.36,35.56c4.34,1.95,9.31,1.95,13.63,0l62.71-28.08c11.03-4.94,23.49,3.12,23.49,15.2v48.64"></path>
    <path class="cls-2" d="m912,169.33v862.68c0,12.09-12.46,20.15-23.49,15.2l-62.71-28.08c-4.32-1.95-9.28-1.95-13.63,0l-79.36,35.56c-4.34,1.93-9.31,1.93-13.63,0l-79.36-35.56c-4.34-1.95-9.31-1.95-13.65,0l-79.36,35.56c-4.34,1.93-9.28,1.93-13.63,0l-79.36-35.56c-4.34-1.95-9.31-1.95-13.65,0l-79.36,35.56c-4.32,1.93-9.28,1.93-13.63,0l-79.36-35.56c-4.34-1.95-9.31-1.95-13.63,0l-62.71,28.08c-11.03,4.94-23.49-3.12-23.49-15.2v-42.58"></path>
    <line class="cls-2" x1="280.77" y1="315.59" x2="560.36" y2="315.59"></line>
    <line class="cls-2" x1="262.16" y1="466.77" x2="323.45" y2="466.77"></line>
    <line class="cls-2" x1="392.83" y1="466.77" x2="817.84" y2="466.77"></line>
    <line class="cls-2" x1="262.16" y1="591.39" x2="323.45" y2="591.39"></line>
    <line class="cls-2" x1="392.83" y1="591.39" x2="817.84" y2="591.39"></line>
    <line class="cls-2" x1="262.16" y1="529.08" x2="323.45" y2="529.08"></line>
    <line class="cls-2" x1="392.83" y1="529.08" x2="817.84" y2="529.08"></line>
    <line class="cls-2" x1="262.16" y1="653.7" x2="323.45" y2="653.7"></line>
    <line class="cls-2" x1="392.83" y1="653.7" x2="817.84" y2="653.7"></line>
    <path class="cls-2" d="m645.03,931.62h-370.41c-6.88,0-12.46-5.58-12.46-12.46v-170.1c0-6.88,5.58-12.46,12.46-12.46h370.41c6.88,0,12.46,5.58,12.46,12.46v170.1c0,6.88-5.58,12.46-12.46,12.46Z"></path>
    <line class="cls-2" x1="657.5" y1="798.63" x2="262.15" y2="798.63"></line>
    <line class="cls-2" x1="388.62" y1="798.63" x2="388.62" y2="931.62"></line>
    <line class="cls-2" x1="531.03" y1="798.63" x2="531.03" y2="931.62"></line>
  </g>
  <path class="cls-1" d="m810,756.74c6.08,0,11.02-4.94,11.02-11.02s-4.94-11.02-11.02-11.02h-95.51c-6.08,0-11.02,4.94-11.02,11.02s4.94,11.02,11.02,11.02h33.06c11.61,0,21.33,7.79,24.51,18.36h-57.57c-6.08,0-11.02,4.94-11.02,11.02s4.94,11.02,11.02,11.02h54.1c-4.66,6.64-12.34,11.02-21.04,11.02h-33.06c-4.83,0-9.11,3.16-10.53,7.77-1.43,4.61.32,9.63,4.32,12.36l80.81,55.1c1.91,1.29,4.05,1.91,6.2,1.91,3.53,0,6.99-1.67,9.13-4.81,3.41-5.04,2.13-11.9-2.9-15.32l-51.4-35.04c20.06-1.06,36.68-14.65,42.65-32.99h17.22c6.08,0,11.02-4.94,11.02-11.02s-4.94-11.02-11.02-11.02h-15.44c-1.04-6.67-3.38-12.9-6.89-18.36h22.33Zm0,0"></path>
</svg>
