<?xml version="1.0" encoding="UTF-8"?>
<svg xmlns="http://www.w3.org/2000/svg" id="Layer_1" data-name="Layer 1" viewBox="0 0 1080 1080">
  <defs>
    <style>
      .cls-1 {
        fill: #006;
      }

      .cls-2 {
        fill: none;
        stroke: #006;
        stroke-linecap: round;
        stroke-linejoin: round;
        stroke-width: 37.88px;
      }
    </style>
  </defs>
  <path class="cls-1" d="m759.95,514.02c7.43,0,13.47-6.03,13.47-13.47s-6.03-13.47-13.47-13.47h-116.7c-7.43,0-13.47,6.03-13.47,13.47s6.03,13.47,13.47,13.47h40.4c14.19,0,26.07,9.51,29.95,22.44h-70.35c-7.43,0-13.47,6.03-13.47,13.47s6.03,13.47,13.47,13.47h66.11c-5.69,8.12-15.08,13.47-25.71,13.47h-40.4c-5.9,0-11.13,3.86-12.87,9.5-1.74,5.64.39,11.76,5.28,15.1l98.75,67.33c2.33,1.58,4.95,2.33,7.57,2.33,4.31,0,8.55-2.05,11.15-5.87,4.17-6.16,2.6-14.54-3.54-18.73l-62.8-42.82c24.51-1.29,44.82-17.9,52.12-40.31h21.04c7.43,0,13.47-6.03,13.47-13.47s-6.03-13.47-13.47-13.47h-18.87c-1.28-8.15-4.13-15.76-8.42-22.44h27.29Zm0,0"></path>
  <g>
    <g id="g1709">
      <path id="path1711" class="cls-2" d="m533.9,185.68H152.14"></path>
    </g>
    <g id="g1713">
      <path id="path1715" class="cls-2" d="m533.9,290.05H152.14"></path>
    </g>
    <g id="g1717">
      <path id="path1719" class="cls-2" d="m343.02,394.42h-190.88"></path>
    </g>
    <g id="g1723">
      <g id="g1737">
        <path id="path1739" class="cls-2" d="m638.63,41.02c5.19,2.37,9.99,5.61,14.1,9.72l152.76,152.76c4.11,4.11,7.35,8.91,9.72,14.1h-138.22c-21.18,0-38.36-17.17-38.36-38.36V41.02Z"></path>
      </g>
      <g id="g1741">
        <path id="path1743" class="cls-2" d="m898.18,691.35c16.03-30.95,25.09-66.09,25.09-103.34,0-124.31-100.77-225.08-225.08-225.08s-225.08,100.77-225.08,225.08c0,37.26,9.06,72.39,25.09,103.34"></path>
      </g>
      <g id="g1745">
        <path id="path1747" class="cls-2" d="m819.6,325.63v-88.07c0-12.77-5.07-25.02-14.1-34.05l-152.75-152.76c-9.03-9.03-21.28-14.1-34.05-14.1H87.15c-26.6,0-48.15,21.56-48.15,48.16v910.41c0,26.6,21.56,48.15,48.15,48.15h221.42"></path>
      </g>
      <g id="g1749">
        <path id="path1751" class="cls-2" d="m473.78,570.44h-66.87c-28.47,0-51.54,23.08-51.54,51.54v369.84c0,28.47,23.08,51.54,51.54,51.54h582.55c28.47,0,51.54-23.08,51.54-51.54v-369.84c0-28.47-23.08-51.54-51.54-51.54h-66.87"></path>
      </g>
      <g id="g1753">
        <path id="path1755" class="cls-2" d="m362.7,595.47l276.23,195.47"></path>
      </g>
      <g id="g1757">
        <path id="path1759" class="cls-2" d="m757.44,790.94l276.23-195.47"></path>
      </g>
      <g id="g1761">
        <path id="path1763" class="cls-2" d="m371.69,1029.43l287.15-256.24c22.42-20.01,56.29-20.01,78.71,0l287.15,256.24"></path>
      </g>
    </g>
  </g>
</svg>
